<?xml version="1.0" encoding="UTF-8"?>
<!-- Do not edit this file with editors other than draw.io -->
<!DOCTYPE svg PUBLIC "-//W3C//DTD SVG 1.1//EN" "http://www.w3.org/Graphics/SVG/1.1/DTD/svg11.dtd">
<svg xmlns="http://www.w3.org/2000/svg" style="background: #ffffff; background-color: light-dark(#ffffff, var(--ge-dark-color, #121212)); color-scheme: light dark;" xmlns:xlink="http://www.w3.org/1999/xlink" version="1.1" width="829px" height="285px" viewBox="-0.5 -0.5 829 285" content="&lt;mxfile host=&quot;app.diagrams.net&quot; agent=&quot;Mozilla/5.0 (Macintosh; Intel Mac OS X 10_15_7) AppleWebKit/537.36 (KHTML, like Gecko) Chrome/137.0.0.0 Safari/537.36&quot; version=&quot;27.0.9&quot; scale=&quot;1&quot; border=&quot;0&quot;&gt;&#10;  &lt;diagram id=&quot;Ht1M8jgEwFfnCIfOTk4-&quot; name=&quot;Page-1&quot;&gt;&#10;    &lt;mxGraphModel dx=&quot;1720&quot; dy=&quot;1171&quot; grid=&quot;1&quot; gridSize=&quot;10&quot; guides=&quot;1&quot; tooltips=&quot;1&quot; connect=&quot;1&quot; arrows=&quot;1&quot; fold=&quot;1&quot; page=&quot;1&quot; pageScale=&quot;1&quot; pageWidth=&quot;1169&quot; pageHeight=&quot;827&quot; math=&quot;0&quot; shadow=&quot;0&quot;&gt;&#10;      &lt;root&gt;&#10;        &lt;mxCell id=&quot;0&quot; /&gt;&#10;        &lt;mxCell id=&quot;1&quot; parent=&quot;0&quot; /&gt;&#10;        &lt;mxCell id=&quot;OpTRriPXECQQPVhnkGXl-1&quot; value=&quot;&quot; style=&quot;sketch=0;points=[[0,0,0],[0.25,0,0],[0.5,0,0],[0.75,0,0],[1,0,0],[0,1,0],[0.25,1,0],[0.5,1,0],[0.75,1,0],[1,1,0],[0,0.25,0],[0,0.5,0],[0,0.75,0],[1,0.25,0],[1,0.5,0],[1,0.75,0]];outlineConnect=0;fontColor=#232F3E;fillColor=#ED7100;strokeColor=#ffffff;dashed=0;verticalLabelPosition=bottom;verticalAlign=top;align=center;html=1;fontSize=12;fontStyle=0;aspect=fixed;shape=mxgraph.aws4.resourceIcon;resIcon=mxgraph.aws4.lambda;&quot; vertex=&quot;1&quot; parent=&quot;1&quot;&gt;&#10;          &lt;mxGeometry x=&quot;171&quot; y=&quot;168&quot; width=&quot;78&quot; height=&quot;78&quot; as=&quot;geometry&quot; /&gt;&#10;        &lt;/mxCell&gt;&#10;        &lt;mxCell id=&quot;OpTRriPXECQQPVhnkGXl-12&quot; value=&quot;&quot; style=&quot;edgeStyle=orthogonalEdgeStyle;rounded=0;orthogonalLoop=1;jettySize=auto;html=1;flowAnimation=1;&quot; edge=&quot;1&quot; parent=&quot;1&quot; source=&quot;OpTRriPXECQQPVhnkGXl-1&quot; target=&quot;OpTRriPXECQQPVhnkGXl-2&quot;&gt;&#10;          &lt;mxGeometry relative=&quot;1&quot; as=&quot;geometry&quot; /&gt;&#10;        &lt;/mxCell&gt;&#10;        &lt;mxCell id=&quot;OpTRriPXECQQPVhnkGXl-13&quot; value=&quot;&quot; style=&quot;edgeStyle=orthogonalEdgeStyle;rounded=0;orthogonalLoop=1;jettySize=auto;html=1;flowAnimation=1;&quot; edge=&quot;1&quot; parent=&quot;1&quot; source=&quot;OpTRriPXECQQPVhnkGXl-2&quot; target=&quot;OpTRriPXECQQPVhnkGXl-4&quot;&gt;&#10;          &lt;mxGeometry relative=&quot;1&quot; as=&quot;geometry&quot; /&gt;&#10;        &lt;/mxCell&gt;&#10;        &lt;mxCell id=&quot;OpTRriPXECQQPVhnkGXl-2&quot; value=&quot;&quot; style=&quot;sketch=0;points=[[0,0,0],[0.25,0,0],[0.5,0,0],[0.75,0,0],[1,0,0],[0,1,0],[0.25,1,0],[0.5,1,0],[0.75,1,0],[1,1,0],[0,0.25,0],[0,0.5,0],[0,0.75,0],[1,0.25,0],[1,0.5,0],[1,0.75,0]];outlineConnect=0;fontColor=#232F3E;fillColor=#ED7100;strokeColor=#ffffff;dashed=0;verticalLabelPosition=bottom;verticalAlign=top;align=center;html=1;fontSize=12;fontStyle=0;aspect=fixed;shape=mxgraph.aws4.resourceIcon;resIcon=mxgraph.aws4.compute_optimizer;&quot; vertex=&quot;1&quot; parent=&quot;1&quot;&gt;&#10;          &lt;mxGeometry x=&quot;361&quot; y=&quot;90&quot; width=&quot;78&quot; height=&quot;78&quot; as=&quot;geometry&quot; /&gt;&#10;        &lt;/mxCell&gt;&#10;        &lt;mxCell id=&quot;OpTRriPXECQQPVhnkGXl-11&quot; value=&quot;&quot; style=&quot;edgeStyle=orthogonalEdgeStyle;rounded=0;orthogonalLoop=1;jettySize=auto;html=1;flowAnimation=1;&quot; edge=&quot;1&quot; parent=&quot;1&quot; source=&quot;OpTRriPXECQQPVhnkGXl-1&quot; target=&quot;OpTRriPXECQQPVhnkGXl-3&quot;&gt;&#10;          &lt;mxGeometry relative=&quot;1&quot; as=&quot;geometry&quot; /&gt;&#10;        &lt;/mxCell&gt;&#10;        &lt;mxCell id=&quot;OpTRriPXECQQPVhnkGXl-14&quot; value=&quot;&quot; style=&quot;edgeStyle=orthogonalEdgeStyle;rounded=0;orthogonalLoop=1;jettySize=auto;html=1;flowAnimation=1;&quot; edge=&quot;1&quot; parent=&quot;1&quot; source=&quot;OpTRriPXECQQPVhnkGXl-3&quot; target=&quot;OpTRriPXECQQPVhnkGXl-4&quot;&gt;&#10;          &lt;mxGeometry relative=&quot;1&quot; as=&quot;geometry&quot; /&gt;&#10;        &lt;/mxCell&gt;&#10;        &lt;mxCell id=&quot;OpTRriPXECQQPVhnkGXl-3&quot; value=&quot;&quot; style=&quot;sketch=0;points=[[0,0,0],[0.25,0,0],[0.5,0,0],[0.75,0,0],[1,0,0],[0,1,0],[0.25,1,0],[0.5,1,0],[0.75,1,0],[1,1,0],[0,0.25,0],[0,0.5,0],[0,0.75,0],[1,0.25,0],[1,0.5,0],[1,0.75,0]];outlineConnect=0;fontColor=#232F3E;fillColor=#ED7100;strokeColor=#ffffff;dashed=0;verticalLabelPosition=bottom;verticalAlign=top;align=center;html=1;fontSize=12;fontStyle=0;aspect=fixed;shape=mxgraph.aws4.resourceIcon;resIcon=mxgraph.aws4.outposts_family;&quot; vertex=&quot;1&quot; parent=&quot;1&quot;&gt;&#10;          &lt;mxGeometry x=&quot;361&quot; y=&quot;295.5&quot; width=&quot;78&quot; height=&quot;78&quot; as=&quot;geometry&quot; /&gt;&#10;        &lt;/mxCell&gt;&#10;        &lt;mxCell id=&quot;OpTRriPXECQQPVhnkGXl-15&quot; value=&quot;&quot; style=&quot;edgeStyle=orthogonalEdgeStyle;rounded=0;orthogonalLoop=1;jettySize=auto;html=1;flowAnimation=1;&quot; edge=&quot;1&quot; parent=&quot;1&quot; source=&quot;OpTRriPXECQQPVhnkGXl-4&quot; target=&quot;OpTRriPXECQQPVhnkGXl-5&quot;&gt;&#10;          &lt;mxGeometry relative=&quot;1&quot; as=&quot;geometry&quot; /&gt;&#10;        &lt;/mxCell&gt;&#10;        &lt;mxCell id=&quot;OpTRriPXECQQPVhnkGXl-4&quot; value=&quot;&quot; style=&quot;sketch=0;points=[[0,0,0],[0.25,0,0],[0.5,0,0],[0.75,0,0],[1,0,0],[0,1,0],[0.25,1,0],[0.5,1,0],[0.75,1,0],[1,1,0],[0,0.25,0],[0,0.5,0],[0,0.75,0],[1,0.25,0],[1,0.5,0],[1,0.75,0]];outlineConnect=0;fontColor=#232F3E;fillColor=#ED7100;strokeColor=#ffffff;dashed=0;verticalLabelPosition=bottom;verticalAlign=top;align=center;html=1;fontSize=12;fontStyle=0;aspect=fixed;shape=mxgraph.aws4.resourceIcon;resIcon=mxgraph.aws4.elastic_beanstalk;&quot; vertex=&quot;1&quot; parent=&quot;1&quot;&gt;&#10;          &lt;mxGeometry x=&quot;561&quot; y=&quot;180&quot; width=&quot;78&quot; height=&quot;78&quot; as=&quot;geometry&quot; /&gt;&#10;        &lt;/mxCell&gt;&#10;        &lt;mxCell id=&quot;OpTRriPXECQQPVhnkGXl-16&quot; value=&quot;&quot; style=&quot;edgeStyle=orthogonalEdgeStyle;rounded=0;orthogonalLoop=1;jettySize=auto;html=1;flowAnimation=1;&quot; edge=&quot;1&quot; parent=&quot;1&quot; source=&quot;OpTRriPXECQQPVhnkGXl-5&quot; target=&quot;OpTRriPXECQQPVhnkGXl-6&quot;&gt;&#10;          &lt;mxGeometry relative=&quot;1&quot; as=&quot;geometry&quot; /&gt;&#10;        &lt;/mxCell&gt;&#10;        &lt;mxCell id=&quot;OpTRriPXECQQPVhnkGXl-5&quot; value=&quot;&quot; style=&quot;sketch=0;points=[[0,0,0],[0.25,0,0],[0.5,0,0],[0.75,0,0],[1,0,0],[0,1,0],[0.25,1,0],[0.5,1,0],[0.75,1,0],[1,1,0],[0,0.25,0],[0,0.5,0],[0,0.75,0],[1,0.25,0],[1,0.5,0],[1,0.75,0]];outlineConnect=0;fontColor=#232F3E;fillColor=#DD344C;strokeColor=#ffffff;dashed=0;verticalLabelPosition=bottom;verticalAlign=top;align=center;html=1;fontSize=12;fontStyle=0;aspect=fixed;shape=mxgraph.aws4.resourceIcon;resIcon=mxgraph.aws4.business_application;&quot; vertex=&quot;1&quot; parent=&quot;1&quot;&gt;&#10;          &lt;mxGeometry x=&quot;731&quot; y=&quot;180&quot; width=&quot;78&quot; height=&quot;78&quot; as=&quot;geometry&quot; /&gt;&#10;        &lt;/mxCell&gt;&#10;        &lt;mxCell id=&quot;OpTRriPXECQQPVhnkGXl-6&quot; value=&quot;&quot; style=&quot;sketch=0;outlineConnect=0;fontColor=#232F3E;gradientColor=none;fillColor=#DD344C;strokeColor=none;dashed=0;verticalLabelPosition=bottom;verticalAlign=top;align=center;html=1;fontSize=12;fontStyle=0;aspect=fixed;shape=mxgraph.aws4.email;&quot; vertex=&quot;1&quot; parent=&quot;1&quot;&gt;&#10;          &lt;mxGeometry x=&quot;921&quot; y=&quot;184.5&quot; width=&quot;78&quot; height=&quot;69&quot; as=&quot;geometry&quot; /&gt;&#10;        &lt;/mxCell&gt;&#10;      &lt;/root&gt;&#10;    &lt;/mxGraphModel&gt;&#10;  &lt;/diagram&gt;&#10;&lt;/mxfile&gt;&#10;"><defs><style>@keyframes ge-flow-animation-enM-NxsqvyNyRVtP53xC {&#xa;  to {&#xa;    stroke-dashoffset: 0;&#xa;  }&#xa;}</style></defs><rect fill="#ffffff" width="100%" height="100%" x="0" y="0" style="fill: light-dark(#ffffff, var(--ge-dark-color, #121212));"/><g><g data-cell-id="0"><g data-cell-id="1"><g data-cell-id="OpTRriPXECQQPVhnkGXl-1"><g><path d="M 0 78 L 78 78 L 78 156 L 0 156 Z" fill="#ed7100" stroke="none" pointer-events="all" style="fill: light-dark(rgb(237, 113, 0), rgb(216, 109, 12));"/><path d="M 25.67 145.97 L 11.83 145.97 L 27.13 113.99 L 34.06 128.26 Z M 28.13 110.93 C 27.94 110.55 27.55 110.3 27.13 110.3 L 27.12 110.3 C 26.69 110.3 26.3 110.55 26.12 110.94 L 9.05 146.61 C 8.89 146.95 8.91 147.36 9.11 147.68 C 9.32 148 9.68 148.2 10.06 148.2 L 26.37 148.2 C 26.8 148.2 27.2 147.95 27.38 147.56 L 36.31 128.73 C 36.46 128.43 36.46 128.07 36.31 127.77 Z M 66.88 145.97 L 53.13 145.97 L 31.08 99.81 C 30.9 99.42 30.5 99.17 30.07 99.17 L 21.08 99.17 L 21.09 88.03 L 38.72 88.03 L 60.67 134.19 C 60.85 134.58 61.25 134.83 61.68 134.83 L 66.88 134.83 Z M 68 132.6 L 62.38 132.6 L 40.43 86.44 C 40.25 86.05 39.85 85.8 39.42 85.8 L 19.97 85.8 C 19.36 85.8 18.86 86.3 18.85 86.91 L 18.84 100.28 C 18.84 100.58 18.96 100.86 19.17 101.07 C 19.38 101.28 19.66 101.4 19.96 101.4 L 29.37 101.4 L 51.42 147.56 C 51.61 147.95 52 148.2 52.43 148.2 L 68 148.2 C 68.61 148.2 69.11 147.7 69.11 147.09 L 69.11 133.71 C 69.11 133.1 68.61 132.6 68 132.6 Z" fill="#ffffff" stroke="none" pointer-events="all" style="fill: light-dark(rgb(255, 255, 255), rgb(18, 18, 18));"/></g></g><g data-cell-id="OpTRriPXECQQPVhnkGXl-12"><g><path d="M 78 117 L 134.09 117 L 134.09 39 L 183.63 39" fill="none" stroke="#000000" stroke-miterlimit="10" pointer-events="stroke" stroke-dasharray="8" style="stroke: light-dark(rgb(0, 0, 0), rgb(255, 255, 255)); animation: 500ms linear 0s infinite normal none running ge-flow-animation-enM-NxsqvyNyRVtP53xC; stroke-dashoffset: 16;"/><path d="M 188.88 39 L 181.88 42.5 L 183.63 39 L 181.88 35.5 Z" fill="#000000" stroke="#000000" stroke-miterlimit="10" pointer-events="all" style="fill: light-dark(rgb(0, 0, 0), rgb(255, 255, 255)); stroke: light-dark(rgb(0, 0, 0), rgb(255, 255, 255));"/></g></g><g data-cell-id="OpTRriPXECQQPVhnkGXl-13"><g><path d="M 268 39 L 429 39 L 429 83.63" fill="none" stroke="#000000" stroke-miterlimit="10" pointer-events="stroke" stroke-dasharray="8" style="stroke: light-dark(rgb(0, 0, 0), rgb(255, 255, 255)); animation: 500ms linear 0s infinite normal none running ge-flow-animation-enM-NxsqvyNyRVtP53xC; stroke-dashoffset: 16;"/><path d="M 429 88.88 L 425.5 81.88 L 429 83.63 L 432.5 81.88 Z" fill="#000000" stroke="#000000" stroke-miterlimit="10" pointer-events="all" style="fill: light-dark(rgb(0, 0, 0), rgb(255, 255, 255)); stroke: light-dark(rgb(0, 0, 0), rgb(255, 255, 255));"/></g></g><g data-cell-id="OpTRriPXECQQPVhnkGXl-2"><g><path d="M 190 0 L 268 0 L 268 78 L 190 78 Z" fill="#ed7100" stroke="none" pointer-events="all" style="fill: light-dark(rgb(237, 113, 0), rgb(216, 109, 12));"/><path d="M 233.42 48.03 L 233.16 45.82 C 237.7 45.28 241.25 41.45 241.25 37.09 C 241.25 32.73 237.7 28.9 233.16 28.37 L 233.42 26.15 C 239.06 26.81 243.47 31.62 243.47 37.09 C 243.47 42.56 239.06 47.37 233.42 48.03 Z M 220.15 67.81 L 216.49 65.56 L 221.92 61.04 L 220.49 59.33 L 214.49 64.33 L 206.73 59.56 L 206.74 50.76 L 212.92 46.63 L 211.68 44.78 L 205.46 48.93 L 200.06 47.13 L 200.05 39.64 L 206.22 35.67 L 205.02 33.8 L 200.05 36.99 L 200.06 31.92 L 205.66 29.12 L 212.3 31.97 L 212.3 37.38 L 207.15 41.5 L 208.54 43.24 L 213.33 39.41 L 215.64 41.72 L 215.64 44.59 L 217.87 44.59 L 217.87 41.25 C 217.87 40.96 217.75 40.68 217.54 40.47 L 214.53 37.45 L 214.53 31.92 L 220.59 28.89 C 220.97 28.7 221.21 28.32 221.21 27.9 L 221.21 21.22 L 218.98 21.22 L 218.98 27.21 L 213.38 30.01 L 206.73 27.16 L 206.74 18.17 L 213.41 13.87 L 213.41 21.22 L 215.64 21.22 L 215.64 12.44 L 219.08 10.23 L 227.89 14.15 L 227.89 36.72 L 224.1 33.7 L 222.72 35.45 L 227.89 39.56 L 227.89 44.02 L 214.04 53.87 L 215.33 55.68 L 227.89 46.75 L 227.89 63.95 Z M 229.45 12.41 L 219.43 7.95 C 219.09 7.8 218.7 7.83 218.38 8.03 L 205.02 16.62 C 204.7 16.83 204.51 17.18 204.51 17.56 L 204.51 27.21 L 198.45 30.24 C 198.07 30.43 197.83 30.81 197.83 31.24 L 197.83 38.68 L 197.83 47.93 C 197.83 48.41 198.14 48.84 198.59 48.99 L 204.51 50.96 L 204.51 60.18 C 204.51 60.57 204.71 60.93 205.04 61.13 L 219.51 70.04 C 219.69 70.14 219.89 70.2 220.09 70.2 C 220.27 70.2 220.43 70.16 220.59 70.08 L 229.5 65.63 C 229.88 65.44 230.11 65.06 230.11 64.63 L 230.11 13.42 C 230.11 12.98 229.86 12.58 229.45 12.41 Z M 235.65 11.2 L 233.29 11.2 L 233.29 8.97 L 236.79 8.97 C 237.09 8.97 237.38 9.09 237.59 9.31 C 237.8 9.52 237.91 9.81 237.91 10.11 L 237.8 13.97 C 239.82 14.5 241.75 15.3 243.56 16.34 L 245.9 13.72 C 246.11 13.49 246.39 13.35 246.7 13.34 C 246.99 13.33 247.3 13.45 247.52 13.67 L 255.03 21.16 C 255.25 21.38 255.36 21.67 255.35 21.98 C 255.35 22.28 255.21 22.57 254.98 22.78 L 252.37 25.12 C 253.41 26.91 254.21 28.83 254.75 30.85 L 257.87 30.65 C 258.18 30.63 258.48 30.74 258.71 30.95 C 258.93 31.16 259.06 31.45 259.06 31.76 L 259.07 42.36 C 259.07 42.67 258.94 42.96 258.72 43.18 C 258.5 43.39 258.19 43.5 257.89 43.48 L 254.77 43.28 C 254.16 45.6 253.2 47.8 251.91 49.84 L 250.03 48.65 C 251.35 46.56 252.29 44.28 252.83 41.87 C 252.95 41.34 253.41 40.97 253.98 41.01 L 256.84 41.18 L 256.83 32.94 L 253.96 33.13 C 253.42 33.17 252.93 32.8 252.81 32.26 C 252.26 29.85 251.31 27.58 250 25.5 C 249.7 25.04 249.79 24.44 250.19 24.07 L 252.62 21.9 L 246.78 16.08 L 244.61 18.51 C 244.25 18.92 243.65 19 243.19 18.71 C 241.1 17.4 238.83 16.46 236.42 15.92 C 235.9 15.8 235.54 15.34 235.55 14.8 Z M 254.89 65.75 L 238.23 65.75 C 237.91 65.75 237.67 65.69 237.5 65.59 C 236.72 65.1 235.8 64.15 235.8 62.42 C 235.8 60.28 237.16 59.48 238.3 59.19 C 238.82 59.05 239.17 58.57 239.13 58.04 L 239.09 57.34 C 239.09 55.46 240.42 53.37 242.06 52.67 C 242.82 52.35 243.52 52.23 244.15 52.23 C 245.95 52.23 247.22 53.26 247.78 53.82 C 248.4 54.44 248.88 55.25 249.22 56.21 C 249.36 56.59 249.7 56.88 250.11 56.94 C 250.52 57 250.92 56.83 251.17 56.49 C 251.56 55.96 252.23 55.74 252.83 55.94 C 253.52 56.16 253.92 56.88 253.94 57.91 C 253.87 58.49 254.27 59.03 254.86 59.13 C 255.79 59.29 257.95 59.93 257.95 62.46 C 257.95 65.31 255.34 65.7 254.89 65.75 Z M 256.11 57.14 C 255.83 55.25 254.65 54.19 253.53 53.82 C 252.57 53.51 251.55 53.61 250.69 54.05 C 250.32 53.37 249.87 52.77 249.36 52.25 C 247.13 50.01 244.08 49.4 241.19 50.62 C 238.75 51.66 236.9 54.5 236.87 57.32 C 234.79 58.19 233.57 60.04 233.57 62.42 C 233.57 65.31 235.29 66.82 236.32 67.47 C 236.84 67.8 237.49 67.97 238.23 67.97 L 254.94 67.97 C 254.97 67.97 255 67.97 255.02 67.97 C 256.8 67.84 260.17 66.52 260.17 62.46 C 260.17 59.43 258.2 57.78 256.11 57.14 Z" fill="#ffffff" stroke="none" pointer-events="all" style="fill: light-dark(rgb(255, 255, 255), rgb(18, 18, 18));"/></g></g><g data-cell-id="OpTRriPXECQQPVhnkGXl-11"><g><path d="M 78 117 L 229 117 L 229 199.13" fill="none" stroke="#000000" stroke-miterlimit="10" pointer-events="stroke" stroke-dasharray="8" style="stroke: light-dark(rgb(0, 0, 0), rgb(255, 255, 255)); animation: 500ms linear 0s infinite normal none running ge-flow-animation-enM-NxsqvyNyRVtP53xC; stroke-dashoffset: 16;"/><path d="M 229 204.38 L 225.5 197.38 L 229 199.13 L 232.5 197.38 Z" fill="#000000" stroke="#000000" stroke-miterlimit="10" pointer-events="all" style="fill: light-dark(rgb(0, 0, 0), rgb(255, 255, 255)); stroke: light-dark(rgb(0, 0, 0), rgb(255, 255, 255));"/></g></g><g data-cell-id="OpTRriPXECQQPVhnkGXl-14"><g><path d="M 268 244.45 L 429 244.45 L 429 174.37" fill="none" stroke="#000000" stroke-miterlimit="10" pointer-events="stroke" stroke-dasharray="8" style="stroke: light-dark(rgb(0, 0, 0), rgb(255, 255, 255)); animation: 500ms linear 0s infinite normal none running ge-flow-animation-enM-NxsqvyNyRVtP53xC; stroke-dashoffset: 16;"/><path d="M 429 169.12 L 432.5 176.12 L 429 174.37 L 425.5 176.12 Z" fill="#000000" stroke="#000000" stroke-miterlimit="10" pointer-events="all" style="fill: light-dark(rgb(0, 0, 0), rgb(255, 255, 255)); stroke: light-dark(rgb(0, 0, 0), rgb(255, 255, 255));"/></g></g><g data-cell-id="OpTRriPXECQQPVhnkGXl-3"><g><path d="M 190 205.5 L 268 205.5 L 268 283.5 L 190 283.5 Z" fill="#ed7100" stroke="none" pointer-events="all" style="fill: light-dark(rgb(237, 113, 0), rgb(216, 109, 12));"/><path d="M 225.67 273.48 L 230.11 273.48 L 230.11 265.7 L 225.67 265.7 Z M 215.67 273.48 L 223.45 273.48 L 223.45 264.59 C 223.45 264.3 223.56 264.01 223.77 263.8 C 223.98 263.6 224.26 263.48 224.56 263.48 L 231.22 263.48 C 231.84 263.48 232.33 263.98 232.33 264.59 L 232.33 273.48 L 240.11 273.48 L 240.11 239.04 L 215.67 239.04 L 215.67 251.26 L 215.67 253.48 Z M 260.11 273.48 L 260.11 275.7 L 197.89 275.7 L 197.89 273.48 L 213.45 273.48 L 213.45 253.48 L 208.92 253.48 C 203.95 253.48 199.64 250.09 198.7 245.42 C 198.64 245.14 198.59 244.86 198.56 244.57 C 198.49 244.01 198.45 243.43 198.45 242.83 C 198.45 236.43 202.67 232.85 206.87 231.51 L 200.25 229.1 L 201.01 227.01 L 209.4 230.07 C 209.97 230.28 210.27 230.92 210.06 231.49 L 207 239.88 L 204.91 239.12 L 206.82 233.89 C 204.46 234.82 200.68 237.2 200.68 242.83 C 200.68 243.32 200.71 243.82 200.76 244.3 C 200.79 244.53 200.83 244.75 200.87 244.97 C 201.61 248.62 205 251.26 208.92 251.26 L 213.45 251.26 L 213.45 237.93 C 213.45 237.63 213.56 237.35 213.77 237.14 C 213.98 236.93 214.26 236.82 214.56 236.82 L 241.22 236.82 C 241.52 236.82 241.8 236.93 242.01 237.14 C 242.21 237.35 242.33 237.63 242.33 237.93 L 242.33 273.48 Z M 232.33 246.81 L 234.55 246.81 L 234.55 244.59 L 232.33 244.59 Z M 230.11 247.93 L 230.11 243.48 C 230.11 243.19 230.23 242.9 230.44 242.7 C 230.64 242.49 230.93 242.37 231.22 242.37 L 235.67 242.37 C 235.96 242.37 236.24 242.49 236.45 242.7 C 236.66 242.9 236.78 243.19 236.78 243.48 L 236.78 247.93 C 236.78 248.22 236.66 248.5 236.45 248.71 C 236.24 248.92 235.96 249.04 235.67 249.04 L 231.22 249.04 C 230.93 249.04 230.64 248.92 230.44 248.71 C 230.23 248.5 230.11 248.22 230.11 247.93 Z M 221.22 246.81 L 223.45 246.81 L 223.45 244.59 L 221.22 244.59 Z M 219 247.93 L 219 243.48 C 219 243.19 219.12 242.9 219.33 242.7 C 219.53 242.49 219.82 242.37 220.11 242.37 L 224.56 242.37 C 224.85 242.37 225.13 242.49 225.34 242.7 C 225.55 242.9 225.67 243.19 225.67 243.48 L 225.67 247.93 C 225.67 248.22 225.55 248.5 225.34 248.71 C 225.13 248.92 224.85 249.04 224.56 249.04 L 220.11 249.04 C 219.82 249.04 219.53 248.92 219.33 248.71 C 219.12 248.5 219 248.22 219 247.93 Z M 232.33 256.81 L 234.55 256.81 L 234.55 254.59 L 232.33 254.59 Z M 230.11 257.92 L 230.11 253.48 C 230.11 252.87 230.61 252.37 231.22 252.37 L 235.67 252.37 C 236.28 252.37 236.78 252.87 236.78 253.48 L 236.78 257.92 C 236.78 258.54 236.28 259.04 235.67 259.04 L 231.22 259.04 C 230.61 259.04 230.11 258.54 230.11 257.92 Z M 221.22 256.81 L 223.45 256.81 L 223.45 254.59 L 221.22 254.59 Z M 220.11 259.04 C 219.5 259.04 219 258.54 219 257.92 L 219 253.48 C 219 252.87 219.5 252.37 220.11 252.37 L 224.56 252.37 C 225.17 252.37 225.67 252.87 225.67 253.48 L 225.67 257.92 C 225.67 258.54 225.17 259.04 224.56 259.04 Z M 209.03 227.09 L 206.9 226.48 C 208.26 221.71 211.63 217.67 215.69 215.95 C 221.96 213.3 228.6 214.62 233.45 219.49 C 234.95 220.99 236.17 222.8 237.11 224.91 C 238.91 223.42 241.27 222.89 243.52 223.54 C 246.62 224.45 248.69 227.3 249.16 231.23 C 252.12 231.94 258.34 234.41 258.63 242.64 C 258.74 246.08 257.79 248.89 255.78 250.96 C 253.83 252.98 251.3 253.88 249.42 254.27 L 254.63 256.76 L 253.68 258.77 L 245.62 254.92 C 245.06 254.66 244.83 254 245.09 253.44 L 248.94 245.38 L 250.95 246.34 L 248.13 252.24 C 249.71 252.01 252.34 251.34 254.19 249.41 C 255.76 247.78 256.5 245.53 256.41 242.71 C 256.16 235.44 250.39 233.66 247.92 233.24 C 247.32 233.14 246.92 232.58 247 231.98 C 246.75 228.71 245.22 226.36 242.89 225.68 C 240.96 225.11 238.89 225.86 237.62 227.58 C 237.37 227.92 236.97 228.09 236.56 228.02 C 236.15 227.96 235.81 227.68 235.67 227.29 C 234.79 224.8 233.51 222.7 231.88 221.05 C 229.86 219.04 224.35 214.7 216.56 218 C 213.15 219.44 210.2 223.01 209.03 227.09 Z" fill="#ffffff" stroke="none" pointer-events="all" style="fill: light-dark(rgb(255, 255, 255), rgb(18, 18, 18));"/></g></g><g data-cell-id="OpTRriPXECQQPVhnkGXl-15"><g><path d="M 468 129 L 553.63 129" fill="none" stroke="#000000" stroke-miterlimit="10" pointer-events="stroke" stroke-dasharray="8" style="stroke: light-dark(rgb(0, 0, 0), rgb(255, 255, 255)); animation: 500ms linear 0s infinite normal none running ge-flow-animation-enM-NxsqvyNyRVtP53xC; stroke-dashoffset: 16;"/><path d="M 558.88 129 L 551.88 132.5 L 553.63 129 L 551.88 125.5 Z" fill="#000000" stroke="#000000" stroke-miterlimit="10" pointer-events="all" style="fill: light-dark(rgb(0, 0, 0), rgb(255, 255, 255)); stroke: light-dark(rgb(0, 0, 0), rgb(255, 255, 255));"/></g></g><g data-cell-id="OpTRriPXECQQPVhnkGXl-4"><g><path d="M 390 90 L 468 90 L 468 168 L 390 168 Z" fill="#ed7100" stroke="none" pointer-events="all" style="fill: light-dark(rgb(237, 113, 0), rgb(216, 109, 12));"/><path d="M 440.76 136.09 C 440.76 134.13 439.18 132.55 437.23 132.55 C 435.29 132.55 433.7 134.13 433.7 136.09 C 433.7 138.04 435.29 139.63 437.23 139.63 C 439.18 139.63 440.76 138.04 440.76 136.09 M 427.82 124.29 C 429.77 124.29 431.35 122.7 431.35 120.75 C 431.35 118.8 429.77 117.21 427.82 117.21 C 425.88 117.21 424.3 118.8 424.3 120.75 C 424.3 122.7 425.88 124.29 427.82 124.29 M 417.24 137.27 C 419.19 137.27 420.77 135.68 420.77 133.73 C 420.77 131.78 419.19 130.19 417.24 130.19 C 415.3 130.19 413.71 131.78 413.71 133.73 C 413.71 135.68 415.3 137.27 417.24 137.27 M 443.11 136.09 C 443.11 138.94 441.09 141.32 438.41 141.87 L 438.41 149.07 C 438.41 149.72 437.88 150.25 437.23 150.25 L 429 150.25 L 429 157.32 L 426.65 157.32 L 426.65 144.35 L 417.24 144.35 C 416.59 144.35 416.07 143.82 416.07 143.17 L 416.07 139.51 C 413.39 138.96 411.36 136.58 411.36 133.73 C 411.36 130.47 414 127.83 417.24 127.83 C 420.48 127.83 423.12 130.47 423.12 133.73 C 423.12 136.58 421.1 138.96 418.42 139.51 L 418.42 141.99 L 426.65 141.99 L 426.65 126.53 C 423.97 125.98 421.95 123.6 421.95 120.75 C 421.95 117.49 424.58 114.85 427.82 114.85 C 431.07 114.85 433.7 117.49 433.7 120.75 C 433.7 123.6 431.68 125.98 429 126.53 L 429 147.89 L 436.05 147.89 L 436.05 141.87 C 433.38 141.32 431.35 138.94 431.35 136.09 C 431.35 132.83 433.99 130.19 437.23 130.19 C 440.47 130.19 443.11 132.83 443.11 136.09 M 460.2 130.26 C 460.2 138.91 453.78 141.99 447.77 141.99 L 447.77 139.63 C 450.8 139.63 457.85 138.71 457.85 130.26 C 457.85 123.94 453.06 121.64 449.04 120.83 C 448.51 120.73 448.13 120.28 448.09 119.75 C 447.8 114.79 444.92 113.04 442.55 113.04 C 440.94 113.04 439.44 113.8 438.42 115.14 C 438.16 115.49 437.73 115.66 437.31 115.6 C 436.88 115.53 436.53 115.24 436.38 114.84 C 435.46 112.33 434.14 110.22 432.45 108.59 C 428.11 104.37 422.18 103.22 416.58 105.53 C 411.94 107.43 408.29 112.92 408.29 118.03 C 408.29 118.6 408.33 119.16 408.4 119.72 C 408.47 120.31 408.09 120.87 407.51 121.01 C 404.76 121.69 400.15 123.79 400.15 130.17 C 400.15 130.41 400.16 130.64 400.17 130.86 C 400.45 135.77 404.79 139.63 410.05 139.63 L 411.36 139.63 L 411.36 141.99 L 410.05 141.99 C 403.54 141.99 398.17 137.16 397.83 130.99 C 397.81 130.73 397.8 130.46 397.8 130.17 C 397.8 122.76 402.92 119.99 405.97 119 C 405.95 118.68 405.94 118.35 405.94 118.03 C 405.94 111.93 410.14 105.61 415.7 103.34 C 422.18 100.68 429.06 102 434.08 106.89 C 435.63 108.39 436.9 110.22 437.89 112.33 C 439.21 111.26 440.84 110.68 442.55 110.68 C 446.03 110.68 449.69 113.17 450.36 118.71 C 456.72 120.27 460.2 124.34 460.2 130.26" fill="#ffffff" stroke="none" pointer-events="all" style="fill: light-dark(rgb(255, 255, 255), rgb(18, 18, 18));"/></g></g><g data-cell-id="OpTRriPXECQQPVhnkGXl-16"><g><path d="M 638 129 L 743.63 129" fill="none" stroke="#000000" stroke-miterlimit="10" pointer-events="stroke" stroke-dasharray="8" style="stroke: light-dark(rgb(0, 0, 0), rgb(255, 255, 255)); animation: 500ms linear 0s infinite normal none running ge-flow-animation-enM-NxsqvyNyRVtP53xC; stroke-dashoffset: 16;"/><path d="M 748.88 129 L 741.88 132.5 L 743.63 129 L 741.88 125.5 Z" fill="#000000" stroke="#000000" stroke-miterlimit="10" pointer-events="all" style="fill: light-dark(rgb(0, 0, 0), rgb(255, 255, 255)); stroke: light-dark(rgb(0, 0, 0), rgb(255, 255, 255));"/></g></g><g data-cell-id="OpTRriPXECQQPVhnkGXl-5"><g><path d="M 560 90 L 638 90 L 638 168 L 560 168 Z" fill="#dd344c" stroke="none" pointer-events="all" style="fill: light-dark(rgb(221, 52, 76), rgb(255, 127, 147));"/><path d="M 630.03 151.91 C 629.86 151.49 629.45 151.22 629 151.22 L 625.67 151.22 L 625.67 125.47 C 625.67 123.13 623.76 121.22 621.42 121.22 L 616.78 121.22 L 616.78 116.78 C 616.78 116.16 616.28 115.67 615.67 115.67 L 612.33 115.67 L 612.33 109 C 612.33 108.39 611.84 107.89 611.22 107.89 L 604.56 107.89 L 604.56 104.55 C 604.56 103.94 604.06 103.44 603.44 103.44 L 600.11 103.44 L 600.11 97.89 L 597.89 97.89 L 597.89 103.44 L 594.56 103.44 C 593.94 103.44 593.44 103.94 593.44 104.55 L 593.44 107.89 L 586.78 107.89 C 586.16 107.89 585.67 108.39 585.67 109 L 585.67 115.67 L 582.33 115.67 C 581.72 115.67 581.22 116.16 581.22 116.78 L 581.22 121.22 L 576.58 121.22 C 574.24 121.22 572.33 123.13 572.33 125.47 L 572.33 151.22 L 569 151.22 C 568.55 151.22 568.14 151.49 567.97 151.91 C 567.8 152.32 567.9 152.8 568.21 153.12 L 574.88 159.79 C 575.09 160 575.37 160.11 575.67 160.11 L 622.33 160.11 C 622.63 160.11 622.91 160 623.12 159.79 L 629.79 153.12 C 630.1 152.8 630.2 152.32 630.03 151.91 Z M 621.42 123.44 C 622.54 123.44 623.45 124.35 623.45 125.47 L 623.45 151.22 L 616.78 151.22 L 616.78 123.44 Z M 610.11 110.11 L 610.11 116.78 C 610.11 117.39 610.61 117.89 611.22 117.89 L 614.56 117.89 L 614.56 151.22 L 604.56 151.22 L 604.56 110.11 Z M 595.67 151.22 L 595.67 105.67 L 602.33 105.67 L 602.33 151.22 Z M 586.78 117.89 C 587.39 117.89 587.89 117.39 587.89 116.78 L 587.89 110.11 L 593.44 110.11 L 593.44 151.22 L 583.44 151.22 L 583.44 117.89 Z M 574.55 125.47 C 574.55 124.35 575.46 123.44 576.58 123.44 L 581.22 123.44 L 581.22 151.22 L 574.55 151.22 Z M 621.87 157.89 L 576.13 157.89 L 571.68 153.45 L 626.32 153.45 Z" fill="#ffffff" stroke="none" pointer-events="all" style="fill: light-dark(rgb(255, 255, 255), rgb(18, 18, 18));"/></g></g><g data-cell-id="OpTRriPXECQQPVhnkGXl-6"><g><path d="M 764.72 111.31 C 764.68 111.63 764.66 112.02 764.66 112.48 L 764.66 112.75 C 764.66 112.85 764.67 112.95 764.69 113.06 C 764.19 113.61 763.63 113.88 762.99 113.88 C 761.91 113.88 761.37 112.77 761.37 110.56 C 761.37 108.69 761.63 107.15 762.17 105.93 C 762.7 104.71 763.35 104.1 764.14 104.1 C 764.57 104.1 765.07 104.3 765.63 104.69 Z M 755.8 121.7 C 757.4 122.67 759.34 123.16 761.59 123.16 C 763.44 123.16 765.09 122.79 766.55 122.05 L 766.55 119.19 C 764.96 119.77 763.44 120.07 761.98 120.07 C 759.6 120.07 757.76 119.29 756.46 117.74 C 755.17 116.19 754.53 113.93 754.53 110.98 C 754.53 108.53 754.95 106.32 755.8 104.35 C 756.64 102.38 757.85 100.82 759.41 99.64 C 760.98 98.47 762.73 97.89 764.69 97.89 C 767.21 97.89 769.12 98.6 770.44 100.02 C 771.75 101.44 772.41 103.52 772.41 106.26 C 772.41 107.58 772.26 108.82 771.97 109.97 C 771.68 111.12 771.26 112.07 770.73 112.82 C 770.2 113.57 769.64 113.94 769.05 113.94 C 768.75 113.94 768.51 113.83 768.34 113.6 C 768.16 113.37 768.08 113.06 768.08 112.67 C 768.08 112.33 768.1 112.02 768.14 111.76 L 769.54 101.63 L 766.51 101.63 L 766.12 102.77 C 765.32 101.69 764.33 101.14 763.16 101.14 C 762.2 101.14 761.29 101.56 760.4 102.4 C 759.53 103.23 758.8 104.4 758.24 105.91 C 757.67 107.43 757.39 109.09 757.39 110.91 C 757.39 112.83 757.74 114.29 758.43 115.31 C 759.13 116.33 760.15 116.84 761.5 116.84 C 762.13 116.84 762.78 116.68 763.47 116.36 C 764.15 116.03 764.75 115.58 765.28 115.02 C 765.62 115.58 766.09 116.02 766.68 116.32 C 767.26 116.63 767.94 116.78 768.69 116.78 C 769.98 116.78 771.15 116.34 772.23 115.47 C 773.3 114.61 774.16 113.37 774.79 111.76 C 775.42 110.15 775.73 108.31 775.73 106.22 C 775.73 103.86 775.31 101.82 774.46 100.12 C 773.61 98.41 772.37 97.1 770.73 96.18 C 769.09 95.25 767.12 94.79 764.82 94.79 C 762.28 94.79 759.95 95.46 757.83 96.81 C 755.72 98.16 754.03 100.06 752.77 102.53 C 751.51 104.99 750.88 107.83 750.88 111.04 C 750.88 113.56 751.3 115.72 752.13 117.53 C 752.97 119.33 754.19 120.72 755.8 121.7 Z M 787.86 142.63 C 788.19 142.91 788.6 143.04 789 143.04 C 789.4 143.04 789.81 142.91 790.14 142.63 L 795.51 138.15 L 821.33 159.66 L 756.67 159.66 L 782.49 138.15 Z M 798.29 135.84 L 824.45 114.03 L 824.45 157.65 Z M 826.23 108.47 L 779.34 108.47 L 779.34 112.02 L 821.33 112.02 L 789 138.96 L 770.16 123.25 L 767.89 125.97 L 779.72 135.84 L 753.55 157.65 L 753.55 125.06 L 750 125.06 L 750 161.43 C 750 162.41 750.79 163.21 751.77 163.21 L 826.23 163.21 C 827.21 163.21 828 162.41 828 161.43 L 828 110.25 C 828 109.27 827.21 108.47 826.23 108.47 Z" fill="#dd344c" stroke="none" pointer-events="all" style="fill: light-dark(rgb(221, 52, 76), rgb(255, 127, 147));"/></g></g></g></g></g></svg>